<svg xmlns="http://www.w3.org/2000/svg" height="24" viewBox="0 -960 960 960" width="24"><path d="m476-72.587 185.348-488.848h85.435L932.37-72.587h-85.674l-42.718-124.63H606.63l-45.195 124.63H476Zm154.87-195.826H777.5L706.065-470h-4L630.87-268.413Zm-476.848 73.435-56.718-56.957L303.13-457.522q-38.956-42.956-67.815-88.674-28.859-45.717-50.337-96.674h85.435q18.478 36.479 39.337 66.076 20.859 29.598 50.098 62.077 44.956-48.957 74.554-100.294Q464-666.348 484.478-724.304H31.869v-81.674H317.13v-81.435h81.435v81.435h285.022v81.674H565.913q-21.478 71.956-58.315 140.391-36.837 68.435-90.794 128.391l97.913 99.674-30.239 83.435-126.63-126.152-203.826 203.587Z"/></svg>